<svg xmlns="http://www.w3.org/2000/svg" version="1.1" xmlns:xlink="http://www.w3.org/1999/xlink" xmlns:svgjs="http://svgjs.com/svgjs" width="3840" height="5560" preserveAspectRatio="none" viewBox="0 0 3840 5560"><g mask="url(&quot;#SvgjsMask1418&quot;)" fill="none"><rect width="3840" height="5560" x="0" y="0" fill="url(#SvgjsLinearGradient1419)"></rect><path d="M1504 5324L4005 7825" stroke-width="8" stroke="url(#SvgjsLinearGradient1420)" stroke-linecap="round" class="TopLeft"></path><path d="M3511 4733L1085 2307" stroke-width="10" stroke="url(#SvgjsLinearGradient1421)" stroke-linecap="round" class="BottomRight"></path><path d="M3046 674L5277 2905" stroke-width="10" stroke="url(#SvgjsLinearGradient1421)" stroke-linecap="round" class="BottomRight"></path><path d="M3491 5386L2487 4382" stroke-width="10" stroke="url(#SvgjsLinearGradient1420)" stroke-linecap="round" class="TopLeft"></path><path d="M2015 1486L3181 2652" stroke-width="10" stroke="url(#SvgjsLinearGradient1421)" stroke-linecap="round" class="BottomRight"></path><path d="M146 4094L-2284 1664" stroke-width="10" stroke="url(#SvgjsLinearGradient1421)" stroke-linecap="round" class="BottomRight"></path><path d="M2905 1344L1364 -197" stroke-width="10" stroke="url(#SvgjsLinearGradient1421)" stroke-linecap="round" class="BottomRight"></path><path d="M1648 2707L4409 5468" stroke-width="8" stroke="url(#SvgjsLinearGradient1420)" stroke-linecap="round" class="TopLeft"></path><path d="M1861 2228L577 944" stroke-width="8" stroke="url(#SvgjsLinearGradient1421)" stroke-linecap="round" class="BottomRight"></path><path d="M2877 2261L4446 3830" stroke-width="10" stroke="url(#SvgjsLinearGradient1420)" stroke-linecap="round" class="TopLeft"></path><path d="M3131 4628L382 1879" stroke-width="10" stroke="url(#SvgjsLinearGradient1420)" stroke-linecap="round" class="TopLeft"></path><path d="M547 3527L2205 5185" stroke-width="6" stroke="url(#SvgjsLinearGradient1420)" stroke-linecap="round" class="TopLeft"></path><path d="M3339 1335L1595 -409" stroke-width="6" stroke="url(#SvgjsLinearGradient1421)" stroke-linecap="round" class="BottomRight"></path><path d="M1307 2157L-1412 -562" stroke-width="10" stroke="url(#SvgjsLinearGradient1420)" stroke-linecap="round" class="TopLeft"></path><path d="M3081 557L4950 2426" stroke-width="10" stroke="url(#SvgjsLinearGradient1420)" stroke-linecap="round" class="TopLeft"></path><path d="M3236 3898L1471 2133" stroke-width="8" stroke="url(#SvgjsLinearGradient1421)" stroke-linecap="round" class="BottomRight"></path><path d="M1311 4253L3082 6024" stroke-width="8" stroke="url(#SvgjsLinearGradient1420)" stroke-linecap="round" class="TopLeft"></path><path d="M2789 3436L4144 4791" stroke-width="10" stroke="url(#SvgjsLinearGradient1421)" stroke-linecap="round" class="BottomRight"></path><path d="M2163 1393L4471 3701" stroke-width="6" stroke="url(#SvgjsLinearGradient1421)" stroke-linecap="round" class="BottomRight"></path><path d="M3273 1865L1417 9" stroke-width="6" stroke="url(#SvgjsLinearGradient1421)" stroke-linecap="round" class="BottomRight"></path><path d="M1169 3515L3125 5471" stroke-width="10" stroke="url(#SvgjsLinearGradient1421)" stroke-linecap="round" class="BottomRight"></path><path d="M2096 2813L4748 5465" stroke-width="10" stroke="url(#SvgjsLinearGradient1421)" stroke-linecap="round" class="BottomRight"></path><path d="M1553 782L3345 2574" stroke-width="6" stroke="url(#SvgjsLinearGradient1420)" stroke-linecap="round" class="TopLeft"></path><path d="M1303 4530L-1082 2145" stroke-width="10" stroke="url(#SvgjsLinearGradient1421)" stroke-linecap="round" class="BottomRight"></path><path d="M321 236L-1073 -1158" stroke-width="8" stroke="url(#SvgjsLinearGradient1421)" stroke-linecap="round" class="BottomRight"></path><path d="M2098 1526L3218 2646" stroke-width="8" stroke="url(#SvgjsLinearGradient1420)" stroke-linecap="round" class="TopLeft"></path><path d="M3574 1887L1730 43" stroke-width="6" stroke="url(#SvgjsLinearGradient1421)" stroke-linecap="round" class="BottomRight"></path><path d="M355 146L-1207 -1416" stroke-width="10" stroke="url(#SvgjsLinearGradient1421)" stroke-linecap="round" class="BottomRight"></path><path d="M1949 2388L-562 -123" stroke-width="10" stroke="url(#SvgjsLinearGradient1420)" stroke-linecap="round" class="TopLeft"></path><path d="M3363 3602L4603 4842" stroke-width="8" stroke="url(#SvgjsLinearGradient1421)" stroke-linecap="round" class="BottomRight"></path><path d="M1992 1037L-882 -1837" stroke-width="10" stroke="url(#SvgjsLinearGradient1420)" stroke-linecap="round" class="TopLeft"></path><path d="M322 1860L-2145 -607" stroke-width="10" stroke="url(#SvgjsLinearGradient1420)" stroke-linecap="round" class="TopLeft"></path><path d="M534 2375L2682 4523" stroke-width="6" stroke="url(#SvgjsLinearGradient1421)" stroke-linecap="round" class="BottomRight"></path><path d="M2501 4959L797 3255" stroke-width="6" stroke="url(#SvgjsLinearGradient1421)" stroke-linecap="round" class="BottomRight"></path><path d="M898 4825L-1944 1983" stroke-width="10" stroke="url(#SvgjsLinearGradient1420)" stroke-linecap="round" class="TopLeft"></path><path d="M3698 979L2121 -598" stroke-width="8" stroke="url(#SvgjsLinearGradient1420)" stroke-linecap="round" class="TopLeft"></path><path d="M1605 3858L3594 5847" stroke-width="8" stroke="url(#SvgjsLinearGradient1421)" stroke-linecap="round" class="BottomRight"></path><path d="M3763 1152L1061 -1550" stroke-width="8" stroke="url(#SvgjsLinearGradient1421)" stroke-linecap="round" class="BottomRight"></path><path d="M3477 4290L5055 5868" stroke-width="8" stroke="url(#SvgjsLinearGradient1421)" stroke-linecap="round" class="BottomRight"></path><path d="M2297 462L4581 2746" stroke-width="10" stroke="url(#SvgjsLinearGradient1420)" stroke-linecap="round" class="TopLeft"></path><path d="M1828 4850L642 3664" stroke-width="10" stroke="url(#SvgjsLinearGradient1420)" stroke-linecap="round" class="TopLeft"></path><path d="M2278 3729L-346 1105" stroke-width="10" stroke="url(#SvgjsLinearGradient1420)" stroke-linecap="round" class="TopLeft"></path><path d="M1245 4825L2519 6099" stroke-width="6" stroke="url(#SvgjsLinearGradient1421)" stroke-linecap="round" class="BottomRight"></path><path d="M2928 673L5392 3137" stroke-width="6" stroke="url(#SvgjsLinearGradient1420)" stroke-linecap="round" class="TopLeft"></path><path d="M2344 4750L-478 1928" stroke-width="10" stroke="url(#SvgjsLinearGradient1421)" stroke-linecap="round" class="BottomRight"></path><path d="M506 4880L1688 6062" stroke-width="10" stroke="url(#SvgjsLinearGradient1420)" stroke-linecap="round" class="TopLeft"></path><path d="M2752 1666L1648 562" stroke-width="8" stroke="url(#SvgjsLinearGradient1421)" stroke-linecap="round" class="BottomRight"></path><path d="M1487 5285L2631 6429" stroke-width="10" stroke="url(#SvgjsLinearGradient1421)" stroke-linecap="round" class="BottomRight"></path><path d="M567 1533L2463 3429" stroke-width="6" stroke="url(#SvgjsLinearGradient1421)" stroke-linecap="round" class="BottomRight"></path><path d="M1594 1189L-1087 -1492" stroke-width="6" stroke="url(#SvgjsLinearGradient1420)" stroke-linecap="round" class="TopLeft"></path><path d="M3589 908L5803 3122" stroke-width="6" stroke="url(#SvgjsLinearGradient1420)" stroke-linecap="round" class="TopLeft"></path><path d="M862 3742L2523 5403" stroke-width="10" stroke="url(#SvgjsLinearGradient1421)" stroke-linecap="round" class="BottomRight"></path><path d="M1519 5127L3720 7328" stroke-width="6" stroke="url(#SvgjsLinearGradient1421)" stroke-linecap="round" class="BottomRight"></path><path d="M2698 1317L4238 2857" stroke-width="8" stroke="url(#SvgjsLinearGradient1421)" stroke-linecap="round" class="BottomRight"></path><path d="M533 3659L2468 5594" stroke-width="10" stroke="url(#SvgjsLinearGradient1421)" stroke-linecap="round" class="BottomRight"></path><path d="M1511 3481L-1351 619" stroke-width="10" stroke="url(#SvgjsLinearGradient1421)" stroke-linecap="round" class="BottomRight"></path><path d="M1552 1147L2890 2485" stroke-width="8" stroke="url(#SvgjsLinearGradient1420)" stroke-linecap="round" class="TopLeft"></path><path d="M155 776L-836 -215" stroke-width="8" stroke="url(#SvgjsLinearGradient1421)" stroke-linecap="round" class="BottomRight"></path><path d="M823 190L3491 2858" stroke-width="6" stroke="url(#SvgjsLinearGradient1420)" stroke-linecap="round" class="TopLeft"></path><path d="M810 5146L2220 6556" stroke-width="8" stroke="url(#SvgjsLinearGradient1420)" stroke-linecap="round" class="TopLeft"></path><path d="M2971 665L4614 2308" stroke-width="8" stroke="url(#SvgjsLinearGradient1421)" stroke-linecap="round" class="BottomRight"></path><path d="M1428 3272L-1223 621" stroke-width="6" stroke="url(#SvgjsLinearGradient1420)" stroke-linecap="round" class="TopLeft"></path><path d="M1568 1705L-533 -396" stroke-width="8" stroke="url(#SvgjsLinearGradient1421)" stroke-linecap="round" class="BottomRight"></path><path d="M801 3394L3017 5610" stroke-width="10" stroke="url(#SvgjsLinearGradient1421)" stroke-linecap="round" class="BottomRight"></path><path d="M3012 4126L5458 6572" stroke-width="6" stroke="url(#SvgjsLinearGradient1421)" stroke-linecap="round" class="BottomRight"></path><path d="M2466 2027L-377 -816" stroke-width="6" stroke="url(#SvgjsLinearGradient1420)" stroke-linecap="round" class="TopLeft"></path><path d="M71 4641L-2204 2366" stroke-width="8" stroke="url(#SvgjsLinearGradient1421)" stroke-linecap="round" class="BottomRight"></path><path d="M3114 396L2122 -596" stroke-width="10" stroke="url(#SvgjsLinearGradient1421)" stroke-linecap="round" class="BottomRight"></path><path d="M217 4423L1917 6123" stroke-width="10" stroke="url(#SvgjsLinearGradient1420)" stroke-linecap="round" class="TopLeft"></path><path d="M371 2743L-2366 6" stroke-width="10" stroke="url(#SvgjsLinearGradient1421)" stroke-linecap="round" class="BottomRight"></path><path d="M888 2189L-698 603" stroke-width="10" stroke="url(#SvgjsLinearGradient1420)" stroke-linecap="round" class="TopLeft"></path><path d="M3065 2579L307 -179" stroke-width="10" stroke="url(#SvgjsLinearGradient1420)" stroke-linecap="round" class="TopLeft"></path><path d="M2456 2683L280 507" stroke-width="10" stroke="url(#SvgjsLinearGradient1420)" stroke-linecap="round" class="TopLeft"></path><path d="M1859 4931L-539 2533" stroke-width="8" stroke="url(#SvgjsLinearGradient1420)" stroke-linecap="round" class="TopLeft"></path><path d="M414 989L-692 -117" stroke-width="8" stroke="url(#SvgjsLinearGradient1420)" stroke-linecap="round" class="TopLeft"></path><path d="M3602 196L2608 -798" stroke-width="10" stroke="url(#SvgjsLinearGradient1420)" stroke-linecap="round" class="TopLeft"></path><path d="M1420 65L3945 2590" stroke-width="8" stroke="url(#SvgjsLinearGradient1421)" stroke-linecap="round" class="BottomRight"></path><path d="M340 4830L-828 3662" stroke-width="8" stroke="url(#SvgjsLinearGradient1421)" stroke-linecap="round" class="BottomRight"></path><path d="M616 1618L-1582 -580" stroke-width="6" stroke="url(#SvgjsLinearGradient1421)" stroke-linecap="round" class="BottomRight"></path><path d="M2165 4487L-251 2071" stroke-width="6" stroke="url(#SvgjsLinearGradient1420)" stroke-linecap="round" class="TopLeft"></path><path d="M20 4493L1699 6172" stroke-width="10" stroke="url(#SvgjsLinearGradient1421)" stroke-linecap="round" class="BottomRight"></path><path d="M3505 126L4792 1413" stroke-width="6" stroke="url(#SvgjsLinearGradient1420)" stroke-linecap="round" class="TopLeft"></path><path d="M878 1754L-270 606" stroke-width="6" stroke="url(#SvgjsLinearGradient1420)" stroke-linecap="round" class="TopLeft"></path><path d="M39 2874L2840 5675" stroke-width="8" stroke="url(#SvgjsLinearGradient1420)" stroke-linecap="round" class="TopLeft"></path><path d="M2706 2375L220 -111" stroke-width="6" stroke="url(#SvgjsLinearGradient1420)" stroke-linecap="round" class="TopLeft"></path><path d="M578 2036L2901 4359" stroke-width="8" stroke="url(#SvgjsLinearGradient1420)" stroke-linecap="round" class="TopLeft"></path><path d="M3080 4263L4665 5848" stroke-width="8" stroke="url(#SvgjsLinearGradient1421)" stroke-linecap="round" class="BottomRight"></path><path d="M3079 4791L4632 6344" stroke-width="8" stroke="url(#SvgjsLinearGradient1421)" stroke-linecap="round" class="BottomRight"></path><path d="M2851 592L525 -1734" stroke-width="8" stroke="url(#SvgjsLinearGradient1420)" stroke-linecap="round" class="TopLeft"></path><path d="M1119 2137L-118 900" stroke-width="10" stroke="url(#SvgjsLinearGradient1420)" stroke-linecap="round" class="TopLeft"></path><path d="M446 2840L2486 4880" stroke-width="10" stroke="url(#SvgjsLinearGradient1421)" stroke-linecap="round" class="BottomRight"></path><path d="M3270 497L1767 -1006" stroke-width="8" stroke="url(#SvgjsLinearGradient1420)" stroke-linecap="round" class="TopLeft"></path><path d="M3252 2575L1934 1257" stroke-width="10" stroke="url(#SvgjsLinearGradient1420)" stroke-linecap="round" class="TopLeft"></path><path d="M1520 1849L-146 183" stroke-width="10" stroke="url(#SvgjsLinearGradient1420)" stroke-linecap="round" class="TopLeft"></path><path d="M663 4951L1790 6078" stroke-width="8" stroke="url(#SvgjsLinearGradient1421)" stroke-linecap="round" class="BottomRight"></path><path d="M1510 1082L-361 -789" stroke-width="10" stroke="url(#SvgjsLinearGradient1420)" stroke-linecap="round" class="TopLeft"></path><path d="M2307 3176L3917 4786" stroke-width="8" stroke="url(#SvgjsLinearGradient1421)" stroke-linecap="round" class="BottomRight"></path><path d="M1858 853L3458 2453" stroke-width="10" stroke="url(#SvgjsLinearGradient1420)" stroke-linecap="round" class="TopLeft"></path><path d="M929 2887L-1276 682" stroke-width="8" stroke="url(#SvgjsLinearGradient1421)" stroke-linecap="round" class="BottomRight"></path><path d="M1524 4635L3856 6967" stroke-width="8" stroke="url(#SvgjsLinearGradient1421)" stroke-linecap="round" class="BottomRight"></path><path d="M2226 1224L4511 3509" stroke-width="8" stroke="url(#SvgjsLinearGradient1420)" stroke-linecap="round" class="TopLeft"></path><path d="M627 1404L-2150 -1373" stroke-width="8" stroke="url(#SvgjsLinearGradient1420)" stroke-linecap="round" class="TopLeft"></path><path d="M2254 2027L-363 -590" stroke-width="10" stroke="url(#SvgjsLinearGradient1421)" stroke-linecap="round" class="BottomRight"></path><path d="M1033 2927L45 1939" stroke-width="8" stroke="url(#SvgjsLinearGradient1420)" stroke-linecap="round" class="TopLeft"></path><path d="M833 4811L-1763 2215" stroke-width="10" stroke="url(#SvgjsLinearGradient1421)" stroke-linecap="round" class="BottomRight"></path><path d="M772 3410L2758 5396" stroke-width="8" stroke="url(#SvgjsLinearGradient1421)" stroke-linecap="round" class="BottomRight"></path><path d="M3251 4245L1895 2889" stroke-width="10" stroke="url(#SvgjsLinearGradient1421)" stroke-linecap="round" class="BottomRight"></path><path d="M508 2470L1887 3849" stroke-width="10" stroke="url(#SvgjsLinearGradient1421)" stroke-linecap="round" class="BottomRight"></path><path d="M237 3585L2566 5914" stroke-width="10" stroke="url(#SvgjsLinearGradient1421)" stroke-linecap="round" class="BottomRight"></path><path d="M3837 2540L2563 1266" stroke-width="10" stroke="url(#SvgjsLinearGradient1420)" stroke-linecap="round" class="TopLeft"></path><path d="M3159 1094L6021 3956" stroke-width="10" stroke="url(#SvgjsLinearGradient1421)" stroke-linecap="round" class="BottomRight"></path><path d="M83 5345L-2693 2569" stroke-width="8" stroke="url(#SvgjsLinearGradient1421)" stroke-linecap="round" class="BottomRight"></path><path d="M1733 3084L72 1423" stroke-width="6" stroke="url(#SvgjsLinearGradient1420)" stroke-linecap="round" class="TopLeft"></path><path d="M1704 2324L3666 4286" stroke-width="6" stroke="url(#SvgjsLinearGradient1420)" stroke-linecap="round" class="TopLeft"></path><path d="M1484 3346L2789 4651" stroke-width="10" stroke="url(#SvgjsLinearGradient1421)" stroke-linecap="round" class="BottomRight"></path><path d="M19 3228L2104 5313" stroke-width="10" stroke="url(#SvgjsLinearGradient1421)" stroke-linecap="round" class="BottomRight"></path><path d="M1080 5047L2175 6142" stroke-width="6" stroke="url(#SvgjsLinearGradient1420)" stroke-linecap="round" class="TopLeft"></path><path d="M659 1895L2334 3570" stroke-width="10" stroke="url(#SvgjsLinearGradient1421)" stroke-linecap="round" class="BottomRight"></path><path d="M2074 2753L-692 -13" stroke-width="8" stroke="url(#SvgjsLinearGradient1420)" stroke-linecap="round" class="TopLeft"></path><path d="M2393 3073L696 1376" stroke-width="8" stroke="url(#SvgjsLinearGradient1420)" stroke-linecap="round" class="TopLeft"></path><path d="M838 4722L3701 7585" stroke-width="8" stroke="url(#SvgjsLinearGradient1421)" stroke-linecap="round" class="BottomRight"></path><path d="M771 4289L1817 5335" stroke-width="6" stroke="url(#SvgjsLinearGradient1421)" stroke-linecap="round" class="BottomRight"></path><path d="M2094 1715L948 569" stroke-width="10" stroke="url(#SvgjsLinearGradient1420)" stroke-linecap="round" class="TopLeft"></path><path d="M3640 1436L776 -1428" stroke-width="8" stroke="url(#SvgjsLinearGradient1420)" stroke-linecap="round" class="TopLeft"></path><path d="M2542 3802L454 1714" stroke-width="6" stroke="url(#SvgjsLinearGradient1421)" stroke-linecap="round" class="BottomRight"></path><path d="M1238 4295L-214 2843" stroke-width="8" stroke="url(#SvgjsLinearGradient1421)" stroke-linecap="round" class="BottomRight"></path><path d="M1150 3437L2378 4665" stroke-width="6" stroke="url(#SvgjsLinearGradient1420)" stroke-linecap="round" class="TopLeft"></path><path d="M214 5260L-1055 3991" stroke-width="6" stroke="url(#SvgjsLinearGradient1421)" stroke-linecap="round" class="BottomRight"></path><path d="M1044 1753L11 720" stroke-width="6" stroke="url(#SvgjsLinearGradient1420)" stroke-linecap="round" class="TopLeft"></path><path d="M3611 4078L5062 5529" stroke-width="8" stroke="url(#SvgjsLinearGradient1420)" stroke-linecap="round" class="TopLeft"></path><path d="M422 795L2475 2848" stroke-width="6" stroke="url(#SvgjsLinearGradient1420)" stroke-linecap="round" class="TopLeft"></path><path d="M2716 608L349 -1759" stroke-width="8" stroke="url(#SvgjsLinearGradient1421)" stroke-linecap="round" class="BottomRight"></path><path d="M2798 3568L1148 1918" stroke-width="6" stroke="url(#SvgjsLinearGradient1421)" stroke-linecap="round" class="BottomRight"></path><path d="M2991 1265L5644 3918" stroke-width="6" stroke="url(#SvgjsLinearGradient1420)" stroke-linecap="round" class="TopLeft"></path><path d="M189 5412L-1949 3274" stroke-width="6" stroke="url(#SvgjsLinearGradient1421)" stroke-linecap="round" class="BottomRight"></path><path d="M3198 2490L2202 1494" stroke-width="6" stroke="url(#SvgjsLinearGradient1421)" stroke-linecap="round" class="BottomRight"></path><path d="M3554 1743L5547 3736" stroke-width="10" stroke="url(#SvgjsLinearGradient1420)" stroke-linecap="round" class="TopLeft"></path><path d="M3241 1829L1072 -340" stroke-width="6" stroke="url(#SvgjsLinearGradient1421)" stroke-linecap="round" class="BottomRight"></path><path d="M1024 1184L-211 -51" stroke-width="6" stroke="url(#SvgjsLinearGradient1420)" stroke-linecap="round" class="TopLeft"></path><path d="M746 1007L2620 2881" stroke-width="6" stroke="url(#SvgjsLinearGradient1421)" stroke-linecap="round" class="BottomRight"></path><path d="M849 2899L3553 5603" stroke-width="6" stroke="url(#SvgjsLinearGradient1421)" stroke-linecap="round" class="BottomRight"></path><path d="M1350 604L-16 -762" stroke-width="10" stroke="url(#SvgjsLinearGradient1420)" stroke-linecap="round" class="TopLeft"></path><path d="M734 5412L-1226 3452" stroke-width="8" stroke="url(#SvgjsLinearGradient1420)" stroke-linecap="round" class="TopLeft"></path><path d="M2803 458L4780 2435" stroke-width="10" stroke="url(#SvgjsLinearGradient1421)" stroke-linecap="round" class="BottomRight"></path><path d="M457 3546L3142 6231" stroke-width="10" stroke="url(#SvgjsLinearGradient1421)" stroke-linecap="round" class="BottomRight"></path><path d="M3218 3462L4612 4856" stroke-width="8" stroke="url(#SvgjsLinearGradient1421)" stroke-linecap="round" class="BottomRight"></path><path d="M536 1627L-514 577" stroke-width="10" stroke="url(#SvgjsLinearGradient1421)" stroke-linecap="round" class="BottomRight"></path><path d="M3627 3637L6114 6124" stroke-width="8" stroke="url(#SvgjsLinearGradient1421)" stroke-linecap="round" class="BottomRight"></path><path d="M3689 4418L5667 6396" stroke-width="6" stroke="url(#SvgjsLinearGradient1421)" stroke-linecap="round" class="BottomRight"></path><path d="M2811 3305L992 1486" stroke-width="8" stroke="url(#SvgjsLinearGradient1421)" stroke-linecap="round" class="BottomRight"></path><path d="M1546 3720L-1328 846" stroke-width="8" stroke="url(#SvgjsLinearGradient1420)" stroke-linecap="round" class="TopLeft"></path><path d="M2045 120L444 -1481" stroke-width="10" stroke="url(#SvgjsLinearGradient1421)" stroke-linecap="round" class="BottomRight"></path><path d="M1536 3161L2862 4487" stroke-width="6" stroke="url(#SvgjsLinearGradient1420)" stroke-linecap="round" class="TopLeft"></path><path d="M3265 1483L4810 3028" stroke-width="10" stroke="url(#SvgjsLinearGradient1420)" stroke-linecap="round" class="TopLeft"></path><path d="M1272 5374L2441 6543" stroke-width="10" stroke="url(#SvgjsLinearGradient1421)" stroke-linecap="round" class="BottomRight"></path><path d="M331 5073L-1831 2911" stroke-width="6" stroke="url(#SvgjsLinearGradient1420)" stroke-linecap="round" class="TopLeft"></path><path d="M1632 3745L4196 6309" stroke-width="6" stroke="url(#SvgjsLinearGradient1420)" stroke-linecap="round" class="TopLeft"></path><path d="M1638 2680L4140 5182" stroke-width="6" stroke="url(#SvgjsLinearGradient1420)" stroke-linecap="round" class="TopLeft"></path><path d="M3149 784L1424 -941" stroke-width="6" stroke="url(#SvgjsLinearGradient1421)" stroke-linecap="round" class="BottomRight"></path><path d="M2709 4893L4180 6364" stroke-width="8" stroke="url(#SvgjsLinearGradient1421)" stroke-linecap="round" class="BottomRight"></path><path d="M1141 3022L2195 4076" stroke-width="6" stroke="url(#SvgjsLinearGradient1421)" stroke-linecap="round" class="BottomRight"></path><path d="M911 3507L3262 5858" stroke-width="10" stroke="url(#SvgjsLinearGradient1421)" stroke-linecap="round" class="BottomRight"></path><path d="M2864 677L1019 -1168" stroke-width="6" stroke="url(#SvgjsLinearGradient1421)" stroke-linecap="round" class="BottomRight"></path><path d="M3724 2481L5234 3991" stroke-width="10" stroke="url(#SvgjsLinearGradient1420)" stroke-linecap="round" class="TopLeft"></path><path d="M2902 294L102 -2506" stroke-width="10" stroke="url(#SvgjsLinearGradient1420)" stroke-linecap="round" class="TopLeft"></path><path d="M2061 1379L3576 2894" stroke-width="8" stroke="url(#SvgjsLinearGradient1420)" stroke-linecap="round" class="TopLeft"></path><path d="M3739 2176L6450 4887" stroke-width="10" stroke="url(#SvgjsLinearGradient1421)" stroke-linecap="round" class="BottomRight"></path><path d="M1680 3298L3205 4823" stroke-width="10" stroke="url(#SvgjsLinearGradient1420)" stroke-linecap="round" class="TopLeft"></path><path d="M275 1050L1619 2394" stroke-width="8" stroke="url(#SvgjsLinearGradient1421)" stroke-linecap="round" class="BottomRight"></path></g><defs><mask id="SvgjsMask1418"><rect width="3840" height="5560" fill="#ffffff"></rect></mask><linearGradient x1="-11.2%" y1="7.73%" x2="111.2%" y2="92.27%" gradientUnits="userSpaceOnUse" id="SvgjsLinearGradient1419"><stop stop-color="#0e2a47" offset="0"></stop><stop stop-color="rgba(0, 64, 158, 1)" offset="1"></stop></linearGradient><linearGradient x1="100%" y1="100%" x2="0%" y2="0%" id="SvgjsLinearGradient1420"><stop stop-color="rgba(217, 236, 31, 0)" offset="0"></stop><stop stop-color="rgba(217, 236, 31, 0.4)" offset="1"></stop></linearGradient><linearGradient x1="0%" y1="0%" x2="100%" y2="100%" id="SvgjsLinearGradient1421"><stop stop-color="rgba(217, 236, 31, 0)" offset="0"></stop><stop stop-color="rgba(217, 236, 31, 0.4)" offset="1"></stop></linearGradient></defs></svg>